<svg width="20" height="20" viewBox="0 0 20 20" fill="none" xmlns="http://www.w3.org/2000/svg">
<path d="M12.1253 6.19972C12.0701 6.14522 11.9999 6.10837 11.9236 6.09384C11.8474 6.07931 11.7685 6.08776 11.6971 6.11812C11.6257 6.14848 11.5649 6.19937 11.5224 6.26435C11.48 6.32932 11.4578 6.40544 11.4587 6.48305V9.35805H4.66699C4.50123 9.35805 4.34226 9.4239 4.22505 9.54111C4.10784 9.65832 4.04199 9.81729 4.04199 9.98305C4.04199 10.1488 4.10784 10.3078 4.22505 10.425C4.34226 10.5422 4.50123 10.6081 4.66699 10.6081H11.4587V13.4831C11.4578 13.5607 11.48 13.6368 11.5224 13.7018C11.5649 13.7667 11.6257 13.8176 11.6971 13.848C11.7685 13.8783 11.8474 13.8868 11.9236 13.8723C11.9999 13.8577 12.0701 13.8209 12.1253 13.7664L15.6337 10.2581C15.7059 10.1848 15.7464 10.086 15.7464 9.98305C15.7464 9.88013 15.7059 9.78134 15.6337 9.70805L12.1253 6.19972Z" fill="white"/>
</svg>
